<svg width="70" height="63" viewBox="0 0 70 63" fill="none" xmlns="http://www.w3.org/2000/svg">
<path d="M1.12833 26.3137L33.0965 0.660215C34.1935 -0.220071 35.7548 -0.220071 36.8517 0.660215L68.8199 26.3137C71.0299 28.0872 69.7759 31.6535 66.9423 31.6535H62.4741C60.8173 31.6535 59.4741 32.9966 59.4741 34.6535V59.6535C59.4741 61.3103 58.131 62.6535 56.4741 62.6535H43.4741V47.1535C43.4741 45.4966 42.131 44.1535 40.4741 44.1535H30.4741C28.8173 44.1535 27.4741 45.4966 27.4741 47.1535V62.6535H13.4741C11.8173 62.6535 10.4741 61.3103 10.4741 59.6535V34.6535C10.4741 32.9966 9.13099 31.6535 7.47414 31.6535H3.00594C0.172363 31.6535 -1.08166 28.0872 1.12833 26.3137Z" fill="white"/>
</svg>
