<svg width="30" height="30" viewBox="0 0 30 30" fill="none" xmlns="http://www.w3.org/2000/svg">
<path d="M15 0C23.2843 0 30 6.71573 30 15C30 23.2843 23.2843 30 15 30C6.71573 30 0 23.2843 0 15C0 6.71573 6.71573 0 15 0ZM15.2832 18.2119L14.7002 18.6309L14.1172 18.2119L11.9688 16.6699L4.72559 22.1475C5.09128 22.5473 5.61563 22.7998 6.2002 22.7998H23.2002C23.8948 22.7997 24.5058 22.4447 24.8643 21.9072L17.4678 16.6426L15.2832 18.2119ZM4.2002 20.0381L10.2686 15.4482L4.2002 11.0918V20.0381ZM19.1855 15.4092L25.2002 19.6904V11.0918L19.1855 15.4092ZM6.2002 6.59961C5.09576 6.59961 4.20041 7.49522 4.2002 8.59961V8.62988L14.6992 16.1689L25.2002 8.62988V8.59961C25.2 7.49528 24.3045 6.59971 23.2002 6.59961H6.2002Z" fill="#C9C5D4"/>
</svg>
