<svg width="30" height="30" viewBox="0 0 30 30" fill="none" xmlns="http://www.w3.org/2000/svg">
<path d="M15 0C23.2843 0 30 6.71573 30 15C30 21.6969 25.6109 27.3672 19.5527 29.2949C19.2513 29.126 18.9688 28.8196 18.9688 28.5977C18.9688 28.0993 18.9873 26.5118 18.9873 24.5371C18.9872 23.1532 18.5183 22.267 17.9746 21.8057C21.312 21.4366 24.8182 20.1821 24.8184 14.5166C24.8184 12.8927 24.2373 11.5823 23.2812 10.5488C23.4312 10.1797 23.9559 8.66582 23.1309 6.63574C23.1103 6.6293 21.851 6.24585 19.0059 8.14941C17.8059 7.81725 16.5308 7.65137 15.2559 7.65137C13.9809 7.65139 12.7058 7.81724 11.5059 8.14941C8.63716 6.24858 7.38086 6.63574 7.38086 6.63574C6.55586 8.66582 7.08145 10.1797 7.23145 10.5488C6.27522 11.5823 5.69336 12.911 5.69336 14.5166C5.69349 20.1636 9.18114 21.4366 12.5186 21.8057C12.0873 22.1748 11.6937 22.8216 11.5625 23.7812C10.7 24.1688 8.54335 24.7956 7.19336 22.5625C6.91193 22.1194 6.06848 21.0316 4.8877 21.0498C3.63145 21.0683 4.38125 21.7505 4.90625 22.0273C5.54375 22.378 6.27461 23.6888 6.44336 24.1133C6.74342 24.9438 7.71876 26.5305 11.4873 25.8477C11.4873 27.0841 11.5059 28.247 11.5059 28.5977C11.5059 28.889 11.1972 29.313 10.7998 29.4004L10.8545 29.4189C4.58663 27.6202 0 21.8461 0 15C0 6.71573 6.71573 0 15 0Z" fill="#C9C5D4"/>
</svg>
