<svg width="30" height="30" viewBox="0 0 30 30" fill="none" xmlns="http://www.w3.org/2000/svg">
<path d="M15 0C23.2843 0 30 6.71573 30 15C30 23.2843 23.2843 30 15 30C6.71573 30 0 23.2843 0 15C0 6.71573 6.71573 0 15 0ZM17.4941 11.4287C17.3685 11.6439 17.2129 11.8414 17.0312 12.0146C16.5099 12.5107 15.8094 12.7887 15.0801 12.7881C15.0538 12.7881 15.0273 12.7869 15.001 12.7861C14.9747 12.7869 14.9475 12.7881 14.9209 12.7881C14.1915 12.7888 13.4902 12.5107 12.9688 12.0146C12.7873 11.8415 12.6315 11.6447 12.5059 11.4297C12.3789 11.645 12.2211 11.8416 12.0381 12.0146C11.5365 12.4917 10.8488 12.7881 10.0908 12.7881C9.36157 12.7887 8.66085 12.5108 8.13965 12.0146C7.95802 11.8416 7.81978 11.6559 7.69336 11.4404C7.56704 11.6563 7.39102 11.8424 7.20898 12.0156C6.68763 12.5113 5.98688 12.7886 5.25781 12.7881C5.16653 12.7881 5.07099 12.7639 4.99414 12.7383C4.88737 13.82 4.84212 14.8537 4.82617 15.6074V15.6123C4.82422 15.9949 4.82227 16.3099 4.82031 16.7471C4.84084 19.0171 4.58955 24.1045 5.84961 25.3545C7.80242 25.7973 11.3955 25.9988 15 26C18.6046 25.9988 22.1987 25.7973 24.1514 25.3545C25.4113 24.1043 25.1592 19.0172 25.1797 16.7471C25.1775 16.3098 25.1758 15.9943 25.1738 15.6113V15.6074C25.158 14.8534 25.1127 13.8192 25.0059 12.7373C24.9291 12.7629 24.8345 12.788 24.7432 12.7881C24.0141 12.7887 23.3134 12.5113 22.792 12.0156C22.6099 11.8423 22.4331 11.6574 22.3066 11.4414C22.1802 11.6568 22.0419 11.8417 21.8604 12.0146C21.3392 12.5108 20.6384 12.7878 19.9092 12.7871C19.1513 12.7871 18.4635 12.4916 17.9619 12.0146C17.7788 11.8416 17.6212 11.6441 17.4941 11.4287ZM19.498 13.9502C19.873 13.9502 21.373 13.9499 22.418 16.8047L23.54 20.7207C24.3718 23.6341 23.274 23.7054 21.9043 23.708C19.873 23.6345 18.748 22.1993 18.748 20.7646C17.6236 20.9439 16.3117 21.0341 15 21.0342C13.6883 21.0342 12.3762 20.9439 11.252 20.7646C11.252 22.1993 10.1269 23.6344 8.0957 23.708C6.72596 23.7054 5.62818 23.6343 6.45996 20.7207L7.58203 16.8047C8.62704 13.9499 10.127 13.9502 10.502 13.9502V13.9512H10.5029C11.2965 13.9528 12.0016 13.9507 12.875 14.8779C13.5624 14.8078 14.2811 14.7724 15 14.7734C15.7188 14.7725 16.4376 14.8078 17.125 14.8779C17.9984 13.9506 18.7035 13.9527 19.4971 13.9512H19.498V13.9502ZM14.6592 16.5029C14.0396 17.0723 12.7657 18.274 12.4775 18.7832L13.876 18.7285V19.915C13.876 19.9706 14.438 19.9482 15 19.9229C15.5617 19.9482 16.124 19.9706 16.124 19.915V18.7285L17.5225 18.7832C17.1383 18.1044 15 16.1934 15 16.1934L14.6592 16.5029ZM15 5C11.6382 5.00029 7.05508 5.05139 6.12891 5.12988C5.08203 5.73452 3.01959 8.03914 3 8.64355V9.64355C3 10.9117 4.21868 12.0263 5.3252 12.0264C6.65385 12.0264 7.76064 10.9558 7.76074 9.68457C7.76075 10.9558 8.83043 12.0264 10.1592 12.0264C11.4879 12.0262 12.5225 10.9557 12.5225 9.68457C12.5225 10.9558 13.6595 12.0264 14.9883 12.0264H15.0117C16.3406 12.0264 17.4775 10.9558 17.4775 9.68457C17.4775 10.9557 18.5123 12.0262 19.8408 12.0264C21.1696 12.0264 22.2393 10.9558 22.2393 9.68457C22.2393 10.9558 23.3462 12.0264 24.6748 12.0264C25.7813 12.0263 27 10.9119 27 9.64355V8.64355C26.9804 8.03903 24.9178 5.73428 23.8711 5.12988C20.6174 5.01877 18.3617 4.99952 15 5Z" fill="#C9C5D4"/>
</svg>
