<svg width="30" height="30" viewBox="0 0 30 30" fill="none" xmlns="http://www.w3.org/2000/svg">
<path d="M15 0C23.2843 0 30 6.71573 30 15C30 23.2843 23.2843 30 15 30C6.71573 30 0 23.2843 0 15C0 6.71573 6.71573 0 15 0ZM6.37695 25H10.3008V12.333H6.37695V25ZM20.3896 11.9463C17.7184 11.9464 16.5842 14.0135 16.5703 14.0391V12.333H12.8086V25H16.5703V18.3506C16.5704 16.5693 17.3906 15.509 18.96 15.5088C20.4028 15.5088 21.0957 16.5277 21.0957 18.3506V25H25V16.9805C25 13.5872 23.0764 11.9463 20.3896 11.9463ZM8.32031 6C7.03895 6 6.00024 7.04635 6 8.33691C6 9.62769 7.0388 10.6748 8.32031 10.6748C9.60166 10.6746 10.6396 9.62757 10.6396 8.33691C10.6394 7.04647 9.60151 6.0002 8.32031 6Z" fill="#C9C5D4"/>
</svg>
