<svg width="590" height="122" viewBox="0 0 590 122" fill="none" xmlns="http://www.w3.org/2000/svg">
<path d="M568.65 67.11H587.43V0.0100098H293.72C293.72 11.94 294.17 22.91 294.14 34.84C294.14 35.63 294.42 36.06 295.04 36.51C320.38 54.66 339.67 67.1 339.67 67.1H293.71C293.71 67.1 294.2 76.45 294.2 82.46C294.14 82.47 294.03 84.5 294.03 84.5L262.34 0H224.38C224.38 0 202.04 58.49 192.8 86.22C192.7 86.22 192.61 82.2 192.52 82.19V10.88C192.52 3.77 193.01 0 193.01 0H155.25V33.55H134.27V0H0V100.64H37.76C37.76 100.64 38.13 67.22 38.13 49.63C38.22 49.61 38.31 49.6 38.39 49.58C40.99 56.28 43.51 64.51 46.15 71.29H96.5V100.64H134.26V67.09H155.24V100.64H225.57L243.66 45.25L261.13 100.64H520.27V49.32L551.17 121.59L589.6 121.61L568.62 67.09L568.65 67.11ZM394.43 33.56V65.91L353.67 33.56H394.43Z" fill="black"/>
<path d="M394.43 29.37H344.08L394.43 71.31V96.47H297.93V71.31H352.48L297.93 33.57V4.22002H394.43V29.38V29.37ZM130.09 96.47H100.72V4.21002H130.09V37.76H159.46V4.21002H188.83V96.47H159.46V62.92H130.09V96.47ZM243.38 33.57L222.4 96.47H193.03L226.6 4.21002H260.17L293.74 96.47H264.37L243.39 33.57H243.38ZM4.22003 4.22002V96.48H33.59V33.58H71.35V37.77H37.78L50.37 67.12H96.52V4.22002H4.21002H4.22003ZM482.54 33.57V4.22002H398.62V96.48H482.54V71.32H423.8V67.13H482.54V37.78H423.8V33.59H482.54V33.57ZM562.26 62.92H583.24V4.21002H486.74V96.47H516.11V33.57H553.87V37.76H520.3L553.87 117.44H583.24L562.26 62.92Z" fill="#8FB7E5"/>
<mask id="mask0_5_3" style="mask-type:luminance" maskUnits="userSpaceOnUse" x="4" y="4" width="580" height="114">
<path d="M394.43 29.37H344.08L394.43 71.31V96.47H297.93V71.31H352.48L297.93 33.57V4.22002H394.43V29.38V29.37ZM130.09 96.47H100.72V4.21002H130.09V37.76H159.46V4.21002H188.83V96.47H159.46V62.92H130.09V96.47ZM243.38 33.57L222.4 96.47H193.03L226.6 4.21002H260.17L293.74 96.47H264.37L243.39 33.57H243.38ZM4.22003 4.22002V96.48H33.59V33.58H71.35V37.77H37.78L50.37 67.12H96.52V4.22002H4.21002H4.22003ZM482.54 33.57V4.22002H398.62V96.48H482.54V71.32H423.8V67.13H482.54V37.78H423.8V33.59H482.54V33.57ZM562.26 62.92H583.24V4.21002H486.74V96.47H516.11V33.57H553.87V37.76H520.3L553.87 117.44H583.24L562.26 62.92Z" fill="white"/>
</mask>
<g mask="url(#mask0_5_3)">
<path d="M297.92 -150.95C457.81 -150.95 587.43 -21.4 587.43 138.4C587.43 298.2 457.81 427.75 297.92 427.75C138.03 427.75 8.41003 298.21 8.41003 138.4C8.41003 -21.41 138.03 -150.95 297.92 -150.95Z" fill="url(#paint0_radial_5_3)"/>
<g style="mix-blend-mode:overlay">
<path d="M297.92 -100.63C372.07 -100.63 432.19 -40.55 432.19 33.56C432.19 107.67 372.08 167.75 297.92 167.75C223.76 167.75 163.65 107.67 163.65 33.56C163.65 -40.55 223.76 -100.63 297.92 -100.63Z" fill="url(#paint1_radial_5_3)"/>
</g>
<g style="mix-blend-mode:soft-light">
<path d="M37.78 -20.95H146.87L-20.96 125.82H-130.05L37.78 -20.95ZM218.2 -20.95H247.57L79.74 125.82H50.37L218.2 -20.95ZM293.72 -20.95H365.05L197.22 125.82H125.89L293.72 -20.95ZM394.42 -20.95H448.97L281.14 125.82H226.59L394.42 -20.95ZM474.14 -20.95H503.51L335.68 125.82H306.31L474.14 -20.95ZM574.84 -20.95H604.21L436.38 125.82H407.01L574.84 -20.95Z" fill="#B8EEFE"/>
</g>
<g style="mix-blend-mode:soft-light">
<path d="M37.78 -20.95H146.87L-20.96 125.82H-130.05L37.78 -20.95ZM218.2 -20.95H247.57L79.74 125.82H50.37L218.2 -20.95ZM293.72 -20.95H365.05L197.22 125.82H125.89L293.72 -20.95ZM394.42 -20.95H448.97L281.14 125.82H226.59L394.42 -20.95ZM474.14 -20.95H503.51L335.68 125.82H306.31L474.14 -20.95ZM574.84 -20.95H604.21L436.38 125.82H407.01L574.84 -20.95Z" fill="#B8EEFE"/>
</g>
<path d="M285.33 8.40997L4.21002 4.21997H583.23L285.33 8.40997Z" fill="white"/>
</g>
<defs>
<radialGradient id="paint0_radial_5_3" cx="0" cy="0" r="1" gradientUnits="userSpaceOnUse" gradientTransform="translate(297.92 138.4) scale(289.43 289.43)">
<stop stop-color="#BFEBFD"/>
<stop offset="1" stop-color="#BFEBFD" stop-opacity="0"/>
</radialGradient>
<radialGradient id="paint1_radial_5_3" cx="0" cy="0" r="1" gradientUnits="userSpaceOnUse" gradientTransform="translate(297.92 33.57) scale(134.23 134.23)">
<stop stop-color="#BFEBFD"/>
<stop offset="1" stop-color="#BFEBFD" stop-opacity="0"/>
</radialGradient>
</defs>
</svg>
